<?xml version="1.0" standalone="no"?>
<!DOCTYPE svg PUBLIC "-//W3C//DTD SVG 20010904//EN"
 "http://www.w3.org/TR/2001/REC-SVG-20010904/DTD/svg10.dtd">
<svg version="1.0" xmlns="http://www.w3.org/2000/svg"
 width="250.000000pt" height="250.000000pt" viewBox="0 0 250.000000 250.000000"
 preserveAspectRatio="xMidYMid meet">

<g transform="translate(0.000000,250.000000) scale(0.100000,-0.100000)"
fill="#000000" stroke="none">
<path d="M1110 2434 c-288 -44 -506 -151 -700 -344 -464 -462 -462 -1212 5
-1675 224 -222 519 -345 829 -345 404 0 771 197 993 533 346 523 223 1224
-282 1605 -140 106 -361 196 -539 221 -73 10 -251 13 -306 5z m830 -254 c0
-10 -108 -175 -172 -264 l-28 -39 -45 94 -45 94 123 62 c117 59 167 75 167 53z
m-466 -822 c13 -29 61 -129 105 -223 47 -98 81 -183 81 -200 0 -31 -3 -33
-232 -140 -128 -60 -240 -115 -250 -123 -15 -12 -15 -10 -5 29 16 63 -4 158
-56 270 -63 134 -107 230 -107 233 0 1 6 3 14 3 8 0 43 14 78 30 63 31 191 91
280 132 26 11 50 25 53 31 10 16 13 13 39 -42z m-639 -759 c5 -5 16 -9 24 -9
9 0 46 -12 83 -26 51 -19 65 -29 61 -41 -5 -14 -138 -81 -362 -185 -100 -46
-99 -29 4 124 119 178 110 169 148 156 18 -6 36 -15 42 -19z"/>
</g>
</svg>
